<svg id="Capa_1" data-name="Capa 1" xmlns="http://www.w3.org/2000/svg" viewBox="0 0 108.05 29.53">
  <defs>
    <style>
      .cls-1 {
        fill: #3a9bb9;
      }
    </style>
  </defs>
  <title>sendSvg</title>
  <path class="cls-1" d="M44.48,9.43A1.49,1.49,0,0,0,44,8.86a2.56,2.56,0,0,0-.91-.4,2,2,0,0,1-.36,0,2.73,2.73,0,0,0-.57,0,.32.32,0,0,1-.27,0c-.1,0-.18.06-.27.05a.76.76,0,0,0-.34.06,13.08,13.08,0,0,0-1,.3c-.37.05-.71.21-1.07.28a3.66,3.66,0,0,0-.44.13l-.46.13-.89.28a5,5,0,0,0-.51.16l-.52.15-1,.3-.87.27a2.65,2.65,0,0,1-.37.12,2.64,2.64,0,0,0-.5.15c-.17.06-.35.09-.52.16s-.36.12-.54.18-.16,0-.23.06l-.21.07c-.07,0-.18,0-.24.08s-.17,0-.21.07a3.93,3.93,0,0,0-.67.19c-.25.06-.49.16-.74.24l-.91.28c-.27.1-.54.17-.81.26s-.44.16-.67.22l-.52.15-.51.17c-.31.08-.61.22-.93.28a4,4,0,0,0-.49.17l-.52.16c-.32.09-.63.23-1,.3-.13,0-.26.09-.39.13l-.37.13a1.94,1.94,0,0,1-.39.12,7.79,7.79,0,0,1-.94.28,3.53,3.53,0,0,1-.49.17,4.32,4.32,0,0,1-.51.16c-.42.12-.82.29-1.25.4a5.31,5.31,0,0,0-.64.21l-.65.22-1.31.4-1,.35-1.44.45-.92.3-1.45.46L11,18l-.45.14c-.3.09-.6.21-.91.29a2.9,2.9,0,0,0-.47.16l-.35.12a2.11,2.11,0,0,0-.38.11A1.18,1.18,0,0,1,8.1,19c-.25.08-.48.18-.73.24l-.23.08-.22.07a1,1,0,0,1-.24.07c-.06.09-.18,0-.23.09a5.54,5.54,0,0,0-.69.22c-.25.08-.51.15-.75.24l-.75.25c-.75.22-1.48.5-2.22.72a1.3,1.3,0,0,0-.42.18,1.82,1.82,0,0,0-.65.75c0,.09,0,.2-.13.27v.4A1.29,1.29,0,0,0,2,23.69c.57.09,1.14.23,1.71.33,2.83.48,5.65,1,8.45,1.56.56.12.57.12.71.68.82,3.4,1.59,6.81,2.36,10.22A1.87,1.87,0,0,0,17,37.91v0h.49a.59.59,0,0,0,.37-.13c.21-.15.4-.34.6-.5s.4-.39.61-.57.67-.66,1-1c.59-.53,1.12-1.12,1.71-1.66s.87-.87,1.31-1.3.86-.88,1.32-1.29,1.08-1.09,1.66-1.61.83-.82,1.26-1.21c.09-.07.16-.16.29-.08s.06,0,.09,0,.29.08.45.05a7.45,7.45,0,0,0,.82.17,5,5,0,0,0,.56.1c.15,0,.29.07.44.09l.43.09a1.17,1.17,0,0,1,.27,0,1.61,1.61,0,0,0,.48.12,1.66,1.66,0,0,0,.54.1c.07.1.21,0,.28.09s.19,0,.29.05a3.56,3.56,0,0,1,.47.1l.65.15a3.79,3.79,0,0,0,.73.15,1.12,1.12,0,0,0,.36.09c.13.05.27.05.39.09a3.17,3.17,0,0,0,.44.12c.16,0,.31.08.47.1a2.56,2.56,0,0,1,.48.1c.2.05.41.07.61.12s.24,0,.34.05.18.06.25,0a1.54,1.54,0,0,1,.3,0h0a2.24,2.24,0,0,0,.87-.47c.1,0,.08-.1.14-.15a1.23,1.23,0,0,0,.34-.57c.17-.47.3-.95.44-1.42a4.81,4.81,0,0,1,.16-.54c.08-.2.13-.41.19-.61s.16-.56.23-.84l.09-.28.21-.74c.06-.2.13-.41.18-.61s.15-.5.21-.75a6.09,6.09,0,0,1,.21-.73c.13-.38.21-.78.35-1.15.08-.22.12-.45.18-.66s.13-.37.17-.56l.21-.74c0-.17.11-.34.15-.52a2,2,0,0,0,.14-.54,1.45,1.45,0,0,0,.14-.46,1.63,1.63,0,0,0,.13-.48,1.93,1.93,0,0,0,.17-.53c0-.18.1-.37.15-.54s.16-.57.26-.86.12-.41.18-.61.09-.29.13-.44.17-.57.24-.86a1.72,1.72,0,0,1,.07-.21c.07-.26.14-.51.22-.76s.1-.32.14-.48.1-.41.15-.61.15-.52.21-.78a2.28,2.28,0,0,0,.13-.68A1.09,1.09,0,0,0,44.48,9.43ZM13.85,23.74a2.38,2.38,0,0,0-.31.17s-.12.09-.18,0a3,3,0,0,1-.59-.1l-.53-.11c-.18-.05-.37-.07-.56-.11l-.78-.16a1.81,1.81,0,0,0-.61-.1s-.07,0-.11-.05-.32-.05-.48-.08a.65.65,0,0,0-.31-.05c-.09-.09-.21,0-.31-.08s-.2,0-.31,0-.46-.08-.68-.13a.82.82,0,0,0-.38,0c-.19-.08-.4-.06-.6-.13a2.87,2.87,0,0,0-.31,0c-.21,0-.42-.08-.64-.1a1.36,1.36,0,0,1-.27,0,2.17,2.17,0,0,0-.25,0c-.19-.07-.4-.06-.59-.13a2.72,2.72,0,0,0-.3,0c-.09,0-.17-.07-.27-.05s-.16-.07-.25-.05l0,0,0,0a.68.68,0,0,1,.22-.12c.12,0,.21-.09.33-.12l.31-.11c.32-.12.65-.22,1-.33s.84-.3,1.27-.43,1.07-.35,1.6-.51.86-.29,1.3-.42c.67-.2,1.32-.44,2-.64.4-.12.8-.26,1.2-.39l.45-.15,1.2-.39.46-.14,1.2-.4.45-.14,1.06-.35,1.58-.5.93-.3.47-.16c.39-.1.77-.25,1.16-.37s.53-.16.79-.24L24,15.7a1.69,1.69,0,0,0,.36-.12,2.26,2.26,0,0,1,.37-.11l.35-.12c.4-.13.79-.27,1.19-.38s.74-.26,1.12-.37.75-.25,1.12-.36l.64-.19.6-.21c.43-.11.84-.28,1.27-.4s.55-.19.83-.26.66-.23,1-.32.62-.21.94-.29a5,5,0,0,0,.51-.16,2.78,2.78,0,0,1,.51-.17c.29-.07.56-.19.85-.27s.32-.11.49-.15.32-.13.49-.17c.34-.08.66-.22,1-.31s.62-.2.93-.28l.61-.2c.2,0,.38-.14.58-.16,0-.06.06,0,.09,0h.09a0,0,0,0,1,.07,0s0,0,0,.05,0,0,0,0,0,0,0,.05a.37.37,0,0,0-.25.1c-.31.17-.64.29-1,.45s-.59.26-.89.39l-1.07.49c-.21.1-.42.22-.63.3s-.47.23-.72.33-.63.33-1,.47-.75.38-1.14.54c-.57.25-1.11.55-1.68.81-1.06.5-2.1,1-3.15,1.56S26.12,17.31,25,17.9c-.61.32-1.24.61-1.84,1s-1,.52-1.57.8c-.36.21-.75.38-1.12.58s-.75.38-1.12.59-.64.32-.95.5-.51.25-.75.4-.52.26-.77.4-.51.26-.75.4l-.7.37-1.24.67ZM19.24,28c0,.16-.1.33-.15.49s-.13.5-.2.74-.13.46-.19.68-.11.4-.17.6-.12.46-.19.68-.11.39-.16.58-.13.48-.2.72-.11.41-.16.61-.12.45-.19.68-.15.5-.21.76-.11.41-.19.61a1.5,1.5,0,0,1-.11.36,1.22,1.22,0,0,0-.1.34s0,0,0,0,0,0,0,0c-.07-.32-.17-.62-.22-.94-.08-.07,0-.17-.08-.26s0-.16-.05-.24-.08-.17-.05-.27,0-.18-.09-.23a5.88,5.88,0,0,0-.14-.73,1.62,1.62,0,0,0-.09-.38c0-.11-.05-.22-.08-.33s-.12-.47-.17-.71-.08-.35-.11-.54a4.42,4.42,0,0,0-.13-.61c-.06-.17-.07-.35-.13-.53a7.05,7.05,0,0,0-.18-.73,2,2,0,0,0-.09-.54c0-.2-.08-.41-.14-.61s0-.22-.07-.32-.06-.32-.11-.48a3.84,3.84,0,0,0-.11-.46.88.88,0,0,1-.06-.29c0-.18-.08-.34-.1-.52a2.74,2.74,0,0,0-.08-.37,1.06,1.06,0,0,1,0-.31.13.13,0,0,1,.08-.14l1-.56c.37-.2.74-.41,1.11-.6l1-.56,1.29-.69,1.13-.61.68-.37,1.26-.67.74-.38,1.37-.74.64-.34L26.46,19l.76-.39.75-.4,1.44-.77c.25-.14.51-.26.75-.4s.56-.27.83-.43.59-.3.88-.46.5-.27.75-.4.51-.26.75-.4.75-.36,1.11-.57.69-.34,1-.53,1-.51,1.47-.76c0,0,0,0,.05,0s.08,0,.12,0,0,0,0,0,0,0-.06,0l-.89.68-.38.26a1.88,1.88,0,0,0-.36.27c-.19.16-.41.29-.6.44a5.34,5.34,0,0,1-.48.35c-.2.13-.37.28-.57.4s-.35.27-.53.39-.38.28-.57.41-.35.24-.52.37l-.62.44-1,.74-.81.57a7.77,7.77,0,0,0-.74.54c-.13.1-.28.18-.42.28l-.64.46L27,20.8c-.38.27-.77.53-1.14.82s-.55.37-.81.56-.49.36-.74.54-.46.32-.69.48-.39.29-.58.44l-.57.41-.6.44-.55.4a4.59,4.59,0,0,1-.44.33c-.19.13-.36.28-.54.41l-.36.29a.91.91,0,0,0-.24.4c-.08.24-.15.49-.22.73S19.33,27.67,19.24,28Zm5.86.19c-.41.39-.76.83-1.17,1.22-.06.06-.12.13-.19.19-.7.62-1.33,1.33-2,2-.44.41-.85.85-1.29,1.25l-.68.64s0,0-.07,0,0-.06,0-.1.07-.28.1-.42.09-.3.13-.44.1-.41.16-.61.12-.51.2-.76l.15-.58.21-.79a4.5,4.5,0,0,1,.17-.6,3.76,3.76,0,0,0,.13-.48c0-.17.09-.33.14-.5a3.2,3.2,0,0,1,.17-.55c.07-.14.06-.15.19-.15h.08a.49.49,0,0,1,.23,0c.08,0,.18,0,.25,0a1.86,1.86,0,0,1,.34,0,1,1,0,0,1,.23.05c.07,0,.16,0,.23,0h.09a.57.57,0,0,1,.25,0c.07,0,.16,0,.25,0s.2,0,.29.06a5.9,5.9,0,0,1,.72.09c.24,0,.47.09.7.13a.18.18,0,0,1,.07.05S25.11,28.17,25.1,28.18ZM42.35,11.82a.67.67,0,0,1-.07.31,7.19,7.19,0,0,1-.24.79,2.26,2.26,0,0,1-.14.57c0,.18-.11.37-.17.55s-.1.36-.14.54-.12.34-.16.52c-.08.36-.2.7-.3,1.06s-.17.62-.27.93-.15.49-.21.74a6.32,6.32,0,0,1-.18.62,2.91,2.91,0,0,0-.12.39c0,.13-.08.26-.11.39s-.12.41-.18.61-.15.51-.21.76-.09.29-.14.44-.15.5-.22.75-.09.36-.14.53a2.54,2.54,0,0,1-.17.51.83.83,0,0,1-.1.38c0,.12-.06.25-.11.38a1.6,1.6,0,0,0-.1.31c0,.1,0,.2-.08.3s0,.23-.1.32a.83.83,0,0,1-.1.38,1.21,1.21,0,0,1-.12.38c-.06.36-.22.7-.27,1.07A2.57,2.57,0,0,0,38,27a5.15,5.15,0,0,0-.16.56.88.88,0,0,1-.05.15l-.27.88c-.05.18-.13.24-.31.18a.39.39,0,0,0-.21,0c-.07,0-.12,0-.18-.05-.33,0-.64-.13-1-.21l-.47-.1c-.29-.08-.59-.13-.88-.21L34,28a2.44,2.44,0,0,1-.47-.09c-.15-.06-.31,0-.44-.13a2,2,0,0,1-.54-.1,4.56,4.56,0,0,1-.64-.14.44.44,0,0,0-.16,0c-.06,0-.1-.05-.16-.06a2,2,0,0,1-.55-.11,1.28,1.28,0,0,0-.27-.05,2.61,2.61,0,0,0-.27-.06.56.56,0,0,1-.29-.06c-.09-.05-.19,0-.26-.07a3.11,3.11,0,0,1-.61-.1,1.21,1.21,0,0,1-.49-.11.25.25,0,0,0-.17,0c-.07,0-.1-.06-.16-.05s-.21-.07-.32,0-.2,0-.3-.08-.2,0-.29,0a4.09,4.09,0,0,1-.61-.1,2.3,2.3,0,0,1-.59-.13c-.14,0-.27-.07-.41,0s-.12-.07-.2-.05a.19.19,0,0,1-.19,0,1.12,1.12,0,0,1-.36,0,1.63,1.63,0,0,1-.43-.08.37.37,0,0,0-.18,0c-.06,0-.09-.06-.16-.05s-.28-.07-.43,0-.2,0-.3-.08-.24,0-.35-.06a1.81,1.81,0,0,1-.31-.09s0,0,0-.05l.2-.15c.29-.22.57-.45.87-.66.15-.11.3-.24.46-.35l.73-.56.68-.5c.26-.18.49-.38.76-.55s.27-.2.41-.3.41-.3.61-.45.4-.3.6-.45l.51-.38c.28-.19.55-.4.83-.6l.67-.49.44-.32c.24-.16.46-.35.71-.51l.46-.34c.24-.17.46-.36.7-.51l.45-.33c.19-.12.36-.27.54-.4l.7-.49.58-.43c.19-.14.38-.29.58-.42s.38-.28.57-.42l.6-.43.58-.43.56-.42.57-.4.6-.44.6-.45.55-.4c.17-.14.37-.26.55-.39l.69-.5.63-.46.2-.13c0-.06,0-.06.08,0A0,0,0,0,1,42.35,11.82Z" transform="translate(-0.84 -8.38)"/>
  <path class="cls-1" d="M108.69,25.6a.54.54,0,0,0-.34-1" transform="translate(-0.84 -8.38)"/>
</svg>
